#N canvas -4 0 1280 677 12;
#X obj 846 290 s squelch;
#X floatatom 321 289 7 0 0 0 - donaldpos -, f 7;
#N canvas 0 110 565 454 hann-window 0;
#N canvas 0 50 450 300 (subpatch) 0;
#X array \$0-hann1 4096 float 0;
#X coords 0 1 4095 0 300 100 1;
#X restore 82 311 graph;
#X obj 378 165 osc~;
#X obj 378 190 *~ -0.5;
#X obj 378 214 +~ 0.5;
#X obj 37 88 r window-size;
#X obj 38 173 /;
#X obj 127 142 samplerate~;
#X obj 38 251 s window-sec;
#X obj 177 204 swap;
#X obj 177 228 /;
#X obj 177 252 s window-hz;
#X obj 49 201 * 1000;
#X obj 49 228 s window-msec;
#X obj 38 115 t f b f;
#X msg 173 92 resize \$1;
#X obj 330 105 r window-hz;
#X msg 382 130 0;
#X obj 330 131 t f b;
#X text 15 8 calculate Hann window table (variable window size) and
constants window-hz (fundamental frequency of analysis) \, window-sec
and window-msec (analysis window size in seconds and msec).;
#X obj 173 116 s \$0-hann1;
#X obj 331 247 tabwrite~ \$0-hann1;
#X connect 1 0 2 0;
#X connect 2 0 3 0;
#X connect 3 0 20 0;
#X connect 4 0 13 0;
#X connect 5 0 7 0;
#X connect 5 0 11 0;
#X connect 6 0 5 1;
#X connect 6 0 8 1;
#X connect 8 0 9 0;
#X connect 8 1 9 1;
#X connect 9 0 10 0;
#X connect 11 0 12 0;
#X connect 13 0 5 0;
#X connect 13 0 8 0;
#X connect 13 1 6 0;
#X connect 13 2 14 0;
#X connect 14 0 19 0;
#X connect 15 0 17 0;
#X connect 16 0 1 1;
#X connect 17 0 1 0;
#X connect 17 1 16 0;
#X connect 17 1 20 0;
#X restore 853 447 pd hann-window;
#N canvas 0 50 1280 677 donald 0;
#N canvas 147 50 795 647 fft-analysis 0;
#X obj 94 511 *~;
#X obj 55 511 *~;
#X obj 413 356 *~;
#X obj 372 356 *~;
#X obj 372 379 +~;
#X obj 54 183 *~;
#X obj 54 158 inlet~;
#X obj 54 206 rfft~;
#X obj 54 560 *~;
#X obj 141 245 *~;
#X obj 372 333 rfft~;
#X obj 54 535 rifft~;
#X obj 54 583 outlet~;
#X obj 107 245 *~;
#X obj 107 268 +~;
#X text 458 408 modulus;
#X obj 107 420 *~;
#X obj 107 398 clip~;
#X obj 599 53 loadbang;
#X obj 148 346 r squelch;
#X obj 147 369 expr 0.01*$f1*$f1;
#X obj 107 294 +~ 1e-020;
#X obj 108 480 *~ 0.00065;
#X obj 373 307 *~;
#X obj 373 282 inlet~;
#X obj 107 321 q8_rsqrt~;
#X obj 372 402 q8_sqrt~;
#X text 458 425 of control;
#X text 456 442 amplitude;
#X text 196 248 reciprocal;
#X text 199 267 modulus of;
#X text 195 287 filter input;
#X text 196 306 amplitude;
#X text 115 159 filter input;
#X text 438 282 control source;
#X text 434 332 Fourier transform;
#X text 28 17 Internal workings of the timbre stamping algorithm. First
the "filter input" is treated as in the compressor patch \, multiplying
each channel amplitude by one over its modulus (but limited by the
"squelch" parameter.) It is then multiplied by the modulus of the channel
amplitude for the control source (which is Fourier analyzed in parallel
with the filter input.);
#X text 145 422 multiply the two amplitude;
#X text 143 439 factors (for compression;
#X text 145 455 and to apply new timbre);
#X obj 406 308 tabreceive~ \$0-hann1;
#X obj 87 560 tabreceive~ \$0-hann1;
#X obj 87 184 tabreceive~ \$0-hann1;
#X obj 600 13 block~ 4096 4;
#X msg 599 76 \; pd dsp 1 \; window-size 4096 \; squelch 30 \; squelch-set
set 30;
#X connect 0 0 11 1;
#X connect 1 0 11 0;
#X connect 2 0 4 1;
#X connect 3 0 4 0;
#X connect 4 0 26 0;
#X connect 5 0 7 0;
#X connect 6 0 5 0;
#X connect 7 0 13 0;
#X connect 7 0 13 1;
#X connect 7 0 1 0;
#X connect 7 1 9 0;
#X connect 7 1 9 1;
#X connect 7 1 0 0;
#X connect 8 0 12 0;
#X connect 9 0 14 1;
#X connect 10 0 3 0;
#X connect 10 0 3 1;
#X connect 10 1 2 0;
#X connect 10 1 2 1;
#X connect 11 0 8 0;
#X connect 13 0 14 0;
#X connect 14 0 21 0;
#X connect 16 0 22 0;
#X connect 17 0 16 0;
#X connect 18 0 44 0;
#X connect 19 0 20 0;
#X connect 20 0 17 2;
#X connect 21 0 25 0;
#X connect 22 0 0 1;
#X connect 22 0 1 1;
#X connect 23 0 10 0;
#X connect 24 0 23 0;
#X connect 25 0 17 0;
#X connect 26 0 16 1;
#X connect 40 0 23 1;
#X connect 41 0 8 1;
#X connect 42 0 5 1;
#X restore 241 476 pd fft-analysis;
#N canvas 190 50 661 593 choir1 0;
#X obj 90 444 line~;
#X obj 90 369 f;
#X obj 90 524 outlet~;
#X msg 90 423 0 \, \$1 \$2;
#X obj 90 397 pack 0 0;
#X obj 190 344 /;
#X obj 249 325 * 0.001;
#X obj 90 497 hip~ 5;
#X obj 35 246 loadbang;
#X msg 90 322 1;
#X obj 90 344 metro 1000;
#X obj 191 302 t b b f;
#X obj 117 270 t b f;
#X obj 90 469 tabread4~ \$0-sample;
#X text 21 28 test signal: looped sample playback;
#X obj 51 159 hip~ 5;
#X obj 51 135 adc~ 1;
#X obj 113 159 s insamprate;
#X obj 40 99 inlet;
#X obj 113 135 samplerate~;
#X obj 116 246 r \$0-samplength;
#X obj 191 276 r \$0-insamprate;
#X obj 40 182 tabwrite~ \$0-sample;
#X floatatom 465 93 15 0 0 0 - #0-samp-msec -, f 15;
#N canvas 388 86 722 350 insample1 0;
#N canvas 0 50 450 300 (subpatch) 0;
#X array \$0-sample 4e+006 float 0;
#X coords 0 1 4e+006 -1 400 150 1;
#X restore 259 24 graph;
#X obj 19 74 unpack s f;
#X obj 19 184 soundfiler;
#X obj 19 100 t s b;
#X obj 75 99 symbol \$0-sample;
#X obj 19 135 pack s s;
#X msg 19 160 read -resize \$1 \$2;
#X obj 74 46 44100;
#X obj 19 47 t a b;
#X obj 29 208 s \$0-samplength;
#X obj 116 74 s \$0-insamprate;
#X obj 19 247 /;
#X obj 19 271 * 1000;
#X obj 19 294 s \$0-samp-msec;
#X obj 57 247 r \$0-insamprate;
#X obj 19 23 r read-sound1;
#X connect 1 0 3 0;
#X connect 1 1 10 0;
#X connect 2 0 9 0;
#X connect 2 0 11 0;
#X connect 3 0 5 0;
#X connect 3 1 4 0;
#X connect 4 0 5 1;
#X connect 5 0 6 0;
#X connect 6 0 2 0;
#X connect 7 0 10 0;
#X connect 8 0 1 0;
#X connect 8 1 7 0;
#X connect 11 0 12 0;
#X connect 12 0 13 0;
#X connect 14 0 11 1;
#X connect 15 0 8 0;
#X restore 282 92 pd insample1;
#X connect 0 0 13 0;
#X connect 1 0 4 0;
#X connect 3 0 0 0;
#X connect 4 0 3 0;
#X connect 5 0 4 1;
#X connect 5 0 10 1;
#X connect 6 0 5 1;
#X connect 7 0 2 0;
#X connect 8 0 9 0;
#X connect 9 0 10 0;
#X connect 10 0 1 0;
#X connect 11 0 9 0;
#X connect 11 1 5 0;
#X connect 11 2 6 0;
#X connect 12 0 9 0;
#X connect 12 1 5 0;
#X connect 12 1 1 1;
#X connect 13 0 7 0;
#X connect 15 0 22 0;
#X connect 16 0 15 0;
#X connect 18 0 19 0;
#X connect 18 0 22 0;
#X connect 19 0 17 0;
#X connect 20 0 12 0;
#X connect 21 0 11 0;
#X restore 345 335 pd choir1;
#X obj 443 48 loadbang;
#X obj 202 45 inlet;
#X obj 542 252 s read-sound1;
#X obj 240 511 outlet~;
#X obj 97 197 vocsim;
#X obj 361 52 inlet;
#X obj 362 234 r speech-sound;
#N canvas -8 -8 1280 677 justsay 0;
#N canvas 197 50 1030 515 freq 0;
#X obj 218 169 t f f;
#X obj 232 202 *;
#X obj 29 132 t b b;
#X obj 90 107 metro 100;
#X obj 73 374 pack;
#X obj 72 463 outlet;
#X floatatom 89 82 0 0 0 0 - - -;
#X floatatom 23 339 0 0 0 0 - - -;
#X floatatom 124 336 0 0 0 0 - - -;
#X obj 88 34 loadbang;
#X msg 89 58 1;
#X obj 217 145 random 35;
#N canvas 0 50 450 250 (subpatch) 0;
#X array scaletable 7 float 3;
#A 0 0 2 3 5 7 9 11;
#X coords 0 12 7 0 200 140 1 0 0;
#X restore 366 105 graph;
#X obj 13 173 random 10;
#X obj 25 315 mtof;
#X obj 10 202 tabread scaletable, f 19;
#X text 72 281 root note;
#X msg 381 293 \; scalesize 5 \; scaletable resize 5 \; scaletable
0 0 2 5 7 9;
#X obj 98 162 r scalesize;
#X obj 237 257 + 1;
#X obj 72 407 line 0 30;
#X obj 72 435 pack 0 30;
#X text 573 320 pentatonic;
#X text 528 394 blues;
#X msg 314 383 \; scalesize 6 \; scaletable resize 6 \; scaletable
0 0 3 5 6 7 10;
#X floatatom 76 258 0 0 0 0 - - -;
#X obj 331 9 r beatsperbar;
#X obj 153 -2 r counter;
#X obj 225 44 ../euclid/euclid;
#X floatatom 236 -29 5 0 0 0 - - -, f 5;
#X floatatom 281 -28 5 0 0 0 - - -, f 5;
#X obj 361 -137 tabread hitsperbar;
#X obj 356 -114 int;
#X obj 541 -118 int;
#X obj 542 -138 tabread offsets;
#X obj 312 -223 r clock;
#X floatatom 433 -175 5 0 0 0 - - -, f 5;
#X msg 434 -222 bang;
#X obj 434 -198 0;
#N canvas 0 50 450 250 (subpatch) 0;
#X array melodytable 16 float 3;
#A 0 0.142858 1.07143 1.78571 2.64286 3.17857 3.10714 2.85714 1.75
1.92857 2.35714 2.60714 2.28571 1.78571 1.39286 1.07143 1.07143;
#X coords 0 5 16 0 200 140 1 0 0;
#X restore 639 125 graph;
#X floatatom 232 426 0 0 0 0 - - -;
#X msg 193 313 bang;
#X obj 232 401 + 1;
#X obj 193 338 float;
#X obj 261 371 mod 5;
#X obj 227 468 tabread melodytable;
#X msg 641 381 \; scalesize 7 \; scaletable resize 7 \; scaletable
0 0 2 3 5 7 9 11;
#X obj 266 331 r melodysize;
#X msg 736 38 \; melodysize \$1 \; melodytable resize \$1 \;;
#X floatatom 734 6 5 0 0 0 - - -, f 5;
#X text 896 405 aeolian;
#X obj 18 281 + 24;
#X obj 78 233 r pitch;
#X connect 0 0 1 0;
#X connect 0 1 1 1;
#X connect 1 0 19 0;
#X connect 2 0 13 0;
#X connect 2 0 41 0;
#X connect 2 1 11 0;
#X connect 4 0 20 0;
#X connect 6 0 3 0;
#X connect 7 0 4 0;
#X connect 8 0 4 1;
#X connect 9 0 10 0;
#X connect 9 0 17 0;
#X connect 10 0 6 0;
#X connect 11 0 0 0;
#X connect 14 0 7 0;
#X connect 15 0 51 0;
#X connect 18 0 13 1;
#X connect 19 0 3 1;
#X connect 20 0 21 0;
#X connect 21 0 5 0;
#X connect 25 0 51 1;
#X connect 26 0 28 3;
#X connect 27 0 28 0;
#X connect 28 0 2 0;
#X connect 29 0 28 1;
#X connect 30 0 28 2;
#X connect 31 0 32 0;
#X connect 32 0 29 0;
#X connect 33 0 30 0;
#X connect 34 0 33 0;
#X connect 35 0 37 0;
#X connect 36 0 34 0;
#X connect 36 0 31 0;
#X connect 37 0 38 0;
#X connect 38 0 36 0;
#X connect 40 0 45 0;
#X connect 41 0 43 0;
#X connect 42 0 40 0;
#X connect 42 0 44 0;
#X connect 43 0 42 0;
#X connect 44 0 43 1;
#X connect 45 0 15 0;
#X connect 47 0 44 1;
#X connect 49 0 48 0;
#X connect 51 0 14 0;
#X connect 52 0 25 0;
#X restore 38 94 pd freq;
#X obj 33 296 outlet~;
#N canvas 86 86 924 558 pulse 0;
#X obj 308 191 line~;
#X obj 36 234 cos~;
#X obj 308 168 pack 0 50;
#X floatatom 308 122 0 0 0 0 - - -;
#X obj 36 133 -~ 0.5;
#X obj 36 188 *~;
#X obj 308 145 / 10;
#X obj 36 211 clip~ -0.5 0.5;
#X text 308 100 bandwidth;
#X obj 308 214 +~ 1;
#X obj 36 257 +~ 1;
#X obj 187 269 cos~;
#X obj 37 325 *~;
#X floatatom 209 124 4 0 0 0 - - -, f 4;
#X obj 209 144 / 10;
#X obj 187 243 *~;
#X obj 209 190 line~;
#X obj 209 167 pack 0 50;
#X floatatom 36 88 4 0 0 0 - - -, f 4;
#X obj 36 109 phasor~ 100;
#X text 184 76 tenths of;
#X text 183 96 fundamental);
#X text 100 271 window;
#X text 222 247 magnified phase;
#X text 264 287 desired center frequency;
#X text 236 270 <--this cosine goes at the;
#X text 265 306 but its phase is reset each;
#X text 263 325 fundamental period.;
#X obj 36 358 hip~;
#X obj 36 280 *~ 0.5;
#X text 86 242 raised;
#X text 94 257 cosine;
#X obj 58 25 inlet;
#X obj 43 484 outlet~;
#X obj 324 26 loadbang;
#X msg 326 68 100;
#X connect 0 0 9 0;
#X connect 1 0 10 0;
#X connect 2 0 0 0;
#X connect 3 0 6 0;
#X connect 4 0 5 0;
#X connect 4 0 15 0;
#X connect 5 0 7 0;
#X connect 6 0 2 0;
#X connect 7 0 1 0;
#X connect 9 0 5 1;
#X connect 10 0 29 0;
#X connect 11 0 12 1;
#X connect 12 0 28 0;
#X connect 13 0 14 0;
#X connect 14 0 17 0;
#X connect 15 0 11 0;
#X connect 16 0 15 1;
#X connect 17 0 16 0;
#X connect 18 0 19 0;
#X connect 19 0 4 0;
#X connect 28 0 33 0;
#X connect 29 0 12 0;
#X connect 32 0 18 0;
#X connect 34 0 35 0;
#X connect 35 0 3 0;
#X restore 31 205 pd pulse;
#X floatatom 209 233 0 0 0 0 - - -;
#X obj 129 256 *~ 0;
#X obj 124 134 noise~;
#X obj 125 163 hip~;
#X floatatom 257 161 5 0 0 0 - - -, f 5;
#X obj 123 191 hip~;
#X msg 223 126 10000;
#X text 281 197 add some noise :-);
#X obj 229 56 loadbang;
#X msg 208 203 0.1;
#X connect 0 0 2 0;
#X connect 2 0 1 0;
#X connect 3 0 4 1;
#X connect 4 0 1 0;
#X connect 5 0 6 0;
#X connect 6 0 8 0;
#X connect 7 0 6 1;
#X connect 7 0 8 1;
#X connect 8 0 4 0;
#X connect 9 0 6 1;
#X connect 9 0 8 1;
#X connect 9 0 7 0;
#X connect 11 0 9 0;
#X connect 11 0 12 0;
#X connect 12 0 3 0;
#X restore 164 346 pd justsay;
#X obj 531 336 inlet;
#X obj 457 376 == 1;
#X obj 550 373 == 0;
#X obj 207 415 *~ 0;
#X obj 368 415 *~ 1;
#X msg 539 173 bach.wav;
#X msg 413 119 cartoons.wav;
#X obj 282 236 vocsim;
#X obj 458 529 outlet~;
#X connect 0 0 5 0;
#X connect 2 0 15 0;
#X connect 2 0 16 0;
#X connect 3 0 17 0;
#X connect 6 0 14 0;
#X connect 6 0 18 0;
#X connect 7 0 6 0;
#X connect 8 0 17 1;
#X connect 9 0 13 0;
#X connect 10 0 11 0;
#X connect 10 0 12 0;
#X connect 11 0 13 1;
#X connect 12 0 14 1;
#X connect 13 0 0 0;
#X connect 14 0 0 0;
#X connect 15 0 4 0;
#X connect 15 0 6 1;
#X connect 16 0 17 1;
#X connect 17 0 0 1;
#X restore 324 313 pd donald;
#N canvas 0 50 677 409 playcontrol 0;
#X obj 131 79 inlet;
#X obj 218 68 inlet;
#X obj 426 63 inlet;
#X obj 496 65 inlet;
#X obj 433 155 metro 100;
#X obj 495 200 + 1;
#X obj 430 202 float;
#X obj 503 243 s hillarypos;
#X obj 164 185 metro 100;
#X obj 226 218 + 1;
#X obj 168 216 float;
#X obj 230 253 s donaldpos;
#X msg 335 134 bang;
#X obj 341 70 loadbang;
#X msg 377 168 226;
#X msg 258 173 344;
#X obj 182 116 r donaldpos_set;
#X obj 525 108 r hillarypos_set;
#X connect 0 0 8 0;
#X connect 1 0 8 1;
#X connect 2 0 4 0;
#X connect 3 0 4 1;
#X connect 4 0 6 0;
#X connect 5 0 6 1;
#X connect 5 0 7 0;
#X connect 6 0 5 0;
#X connect 8 0 10 0;
#X connect 9 0 10 1;
#X connect 9 0 11 0;
#X connect 10 0 9 0;
#X connect 12 0 14 0;
#X connect 12 0 15 0;
#X connect 13 0 12 0;
#X connect 14 0 6 0;
#X connect 15 0 10 0;
#X connect 16 0 10 0;
#X connect 17 0 6 0;
#X restore 361 163 pd playcontrol;
#X obj 361 137 tgl 15 0 empty empty empty 17 7 0 10 -262144 -1 -1 0
1;
#X obj 433 139 tgl 15 0 empty empty empty 17 7 0 10 -262144 -1 -1 0
1;
#X floatatom 483 101 7 0 1000 0 - - -, f 7;
#X floatatom 399 103 7 0 1000 0 - - -, f 7;
#X floatatom 399 68 7 0 0 0 - - -, f 7;
#N canvas 0 260 1280 677 record 0;
#X msg 44 169 start;
#X msg 377 237 stop;
#X obj 277 78 inlet;
#X obj 300 112 delay 10;
#X obj 141 216 catch~ mixL;
#X obj 256 217 catch~ mixR;
#X obj 153 273 writesf~ 2;
#X msg 230 158 open out.wav;
#X obj 377 197 inlet;
#X text 20 10 open and start recording to out.wav (overrides old one)
;
#X connect 0 0 6 0;
#X connect 1 0 6 0;
#X connect 2 0 7 0;
#X connect 2 0 3 0;
#X connect 3 0 0 0;
#X connect 4 0 6 0;
#X connect 5 0 6 1;
#X connect 7 0 6 0;
#X connect 8 0 1 0;
#X restore 919 584 pd record;
#X obj 1079 278 loadbang;
#X obj 355 366 tgl 15 0 empty donald_on empty 17 7 0 10 -262144 -1
-1 1 1;
#X obj 330 388 *~;
#X obj 512 364 tgl 15 0 empty hillary_on empty 17 7 0 10 -262144 -1
-1 1 1;
#X obj 482 385 *~;
#N canvas 0 135 1278 454 clock 0;
#X obj 366 207 metro 100;
#X obj 354 173 tgl 15 0 empty empty empty 17 7 0 10 -262144 -1 -1 1
1;
#X obj 500 298 f;
#X obj 529 296 + 1;
#X obj 406 -69 loadbang;
#X floatatom 406 9 5 0 0 0 - - -, f 5;
#X floatatom 407 56 5 0 0 0 - - -, f 5;
#X obj 406 31 expr $f1/60;
#X text 461 58 hz;
#X text 453 6 bpm;
#X floatatom 408 104 5 0 0 0 - - -, f 5;
#X obj 407 80 expr 1000/$f1;
#X text 456 103 T[ms] 4ths;
#X floatatom 407 160 5 0 0 0 - - -, f 5;
#X text 453 158 T[ms] 16ths;
#X obj 406 130 expr $f1*0.25;
#X obj 309 274 s clock;
#X obj 501 325 s counter;
#X msg 406 -29 100;
#X obj 253 -34 inlet;
#X obj 294 113 inlet;
#X obj 609 30 outlet;
#X obj 516 262 bng 15 250 50 0 empty empty empty 17 7 0 10 -262144
-1 -1;
#X floatatom 675 288 5 0 0 1 tempo - -, f 5;
#X obj 525 183 tgl 15 0 empty empty empty 17 7 0 10 -262144 -1 -1 1
1;
#X msg 525 203 connect \$1;
#X msg 733 140 tempo \$1;
#X floatatom 733 121 5 0 0 2 tempo - -, f 5;
#X obj 516 232 abl_link~ 4 0 16 134;
#X connect 0 0 16 0;
#X connect 1 0 0 0;
#X connect 1 0 24 0;
#X connect 2 0 3 0;
#X connect 2 0 17 0;
#X connect 3 0 2 1;
#X connect 4 0 18 0;
#X connect 5 0 7 0;
#X connect 5 0 21 0;
#X connect 6 0 11 0;
#X connect 7 0 6 0;
#X connect 10 0 15 0;
#X connect 11 0 10 0;
#X connect 13 0 0 1;
#X connect 15 0 13 0;
#X connect 18 0 5 0;
#X connect 19 0 5 0;
#X connect 19 0 27 0;
#X connect 20 0 1 0;
#X connect 22 0 2 0;
#X connect 24 0 25 0;
#X connect 25 0 28 0;
#X connect 26 0 28 0;
#X connect 27 0 26 0;
#X connect 28 0 22 0;
#X connect 28 3 23 0;
#X restore 56 107 pd clock;
#X obj 59 53 hsl 128 15 30 300 0 0 empty bpm empty -2 -8 0 10 -262144
-1 -1 2916 1;
#X obj 132 87 tgl 15 0 empty empty empty 17 7 0 10 -262144 -1 -1 1
1;
#X floatatom 56 80 5 0 0 0 - - -, f 5;
#X text 16 79 bpm;
#X text 157 83 <- start here;
#X text 366 251 position in speechfile;
#X obj 850 262 hsl 128 15 1 500 0 0 empty squelch-set empty -2 -8 0
10 -262144 -1 -1 12700 1;
#X obj 919 567 bng 15 250 50 0 empty empty empty 17 7 0 10 -262144
-1 -1;
#X obj 789 101 s read-sound1;
#X obj 787 135 s read-sound2;
#X msg 658 61 silent_c.wav;
#X msg 883 60 jazz2.wav;
#X msg 1082 303 \; vol 0.5 \; donald_on 1 \; hillary_on 1 \; don_euc_on
0 \; hill_euc_on 0 \; donaldpos_set 251 \; hillarypos_set 393 \;;
#X msg 777 60 autumn.wav;
#X msg 12 261 \; don_euc_on 0 \; hill_euc_on 0 \;;
#X text 54 156 euclidians on/off;
#N canvas 49 59 989 509 euclidiangates 0;
#X obj 297 222 *~;
#X obj 495 236 *~;
#X obj 470 149 tgl 15 0 empty hill_euc_on empty 17 7 0 10 -262144 -1
-1 1 1;
#X obj 134 281 *~;
#X obj 41 189 tgl 15 0 empty don_euc_on empty 17 7 0 10 -262144 -1
-1 1 1;
#X obj 41 216 ../euclid/euclidtrigger~ 3;
#X obj 343 390 *~;
#X obj 412 339 tgl 15 0 empty don_euc_on empty 17 7 0 10 -262144 -1
-1 1 1;
#X obj 698 226 *~;
#X obj 742 148 tgl 15 0 empty hill_euc_on empty 17 7 0 10 -262144 -1
-1 1 1;
#X obj 367 54 inlet~;
#X obj 592 33 inlet~;
#X obj 330 278 +~;
#X obj 323 312 *~ 0.5;
#X obj 275 453 outlet~;
#X obj 417 451 outlet~;
#X obj 210 120 tgl 15 0 empty don_euc_on empty 17 7 0 10 -262144 -1
-1 1 1;
#X obj 470 175 ../euclid/euclidtrigger~ 1;
#X obj 221 172 ../euclid/euclidtrigger~ 0;
#X obj 394 359 ../euclid/euclidtrigger~ 4;
#X obj 742 174 ../euclid/euclidtrigger~ 2;
#X connect 0 0 14 0;
#X connect 1 0 15 0;
#X connect 2 0 17 0;
#X connect 3 0 14 0;
#X connect 4 0 5 0;
#X connect 5 0 3 1;
#X connect 6 0 14 0;
#X connect 6 0 15 0;
#X connect 7 0 19 0;
#X connect 8 0 15 0;
#X connect 9 0 20 0;
#X connect 10 0 0 0;
#X connect 10 0 3 0;
#X connect 10 0 12 0;
#X connect 11 0 1 0;
#X connect 11 0 8 0;
#X connect 11 0 12 1;
#X connect 12 0 13 0;
#X connect 13 0 6 0;
#X connect 16 0 18 0;
#X connect 17 0 1 1;
#X connect 18 0 0 1;
#X connect 19 0 6 1;
#X connect 20 0 8 1;
#X restore 352 439 pd euclidiangates;
#N canvas 192 61 776 599 euclidcontrol 0;
#N canvas 0 50 450 250 (subpatch) 0;
#X array mixer 5 float 3;
#A 0 1.77143 1.62857 1.57143 1.45714 1.4;
#X coords 0 2 5 0 200 140 1 0 0;
#X restore 244 33 graph;
#N canvas 0 50 450 250 (subpatch) 0;
#X array hitsperbar 5 float 3;
#A 0 13.7143 12.6857 13.2571 10.4 8.45715;
#X coords 0 16 5 0 200 140 1 0 0;
#X restore 241 196 graph;
#N canvas 0 50 450 250 (subpatch) 0;
#X array offsets 5 float 3;
#A 0 2.85714 1.82857 1.71429 1.71429 0.685711;
#X coords 0 16 5 0 200 140 1 0 0;
#X restore 244 370 graph;
#X obj 638 51 hsl 128 15 1 64 0 0 empty empty empty -2 -8 0 10 -262144
-1 -1 0 1;
#X floatatom 640 113 5 0 0 0 - - beatsperbar, f 5;
#X text 627 28 beatsperbar;
#X obj 639 81 int;
#N canvas 405 228 566 349 init 0;
#X floatatom 119 105 5 0 0 0 - - -, f 5;
#X obj 119 58 loadbang;
#X msg 119 82 16;
#X obj 119 129 s beatsperbar;
#X msg 57 92 92;
#X obj 58 122 s bpm;
#X msg 288 97 \; pd dsp 1;
#X connect 0 0 3 0;
#X connect 1 0 2 0;
#X connect 1 0 4 0;
#X connect 1 0 6 0;
#X connect 2 0 0 0;
#X connect 4 0 5 0;
#X restore 651 157 pd init;
#N canvas 0 50 450 250 (subpatch) 0;
#X array attacks 5 float 3;
#A 0 0.892857 1.25 0.714286 0.714286 2.67857;
#X coords 0 25 5 0 200 140 1 0 0;
#X restore 483 374 graph;
#N canvas 0 50 450 250 (subpatch) 0;
#X array decays 5 float 3;
#A 0 292.857 64.286 357.143 450 50;
#X coords 0 1000 5 0 200 140 1 0 0;
#X restore 28 33 graph;
#X connect 3 0 6 0;
#X connect 6 0 4 0;
#X restore 29 369 pd euclidcontrol;
#N canvas 0 50 868 545 out 0;
#X obj 280 357 dac~;
#X obj 289 276 *~;
#X obj 363 273 *~;
#X floatatom 407 295 0 0 120 0 - - -;
#X text 448 295 level \, dB;
#X obj 471 457 dac~, f 5;
#X obj 230 417 throw~ mixL;
#X obj 329 417 throw~ mixR;
#X obj 210 44 inlet~;
#X obj 420 70 inlet~;
#X obj 607 26 inlet;
#X floatatom 327 114 0 0 12000 0 - - -;
#X obj 371 19 loadbang;
#X msg 291 55 12500;
#N canvas 0 50 450 300 delay 0;
#X floatatom 41 136 0 0 0 0 - - -;
#X text 71 135 <-- delay time;
#X text 270 234 write to delay line;
#X text 229 160 read from delay line;
#X text 55 207 add the original and the delayed signal;
#X obj 20 208 +~;
#X obj 41 184 *~ 0.7;
#X text 99 184 feedback gain;
#X obj 41 160 delread~ G02-del 160;
#X obj 60 233 delwrite~ G02-del 2000;
#X obj 16 44 inlet~;
#X obj 30 269 outlet~;
#X obj 112 48 inlet;
#X connect 0 0 8 0;
#X connect 5 0 9 0;
#X connect 5 0 11 0;
#X connect 6 0 5 1;
#X connect 8 0 6 0;
#X connect 10 0 5 0;
#X connect 12 0 0 0;
#X restore 159 212 pd delay;
#N canvas 0 50 450 300 delay 0;
#X floatatom 41 136 0 0 0 0 - - -;
#X text 71 135 <-- delay time;
#X text 270 234 write to delay line;
#X text 229 160 read from delay line;
#X text 55 207 add the original and the delayed signal;
#X obj 20 208 +~;
#X obj 41 184 *~ 0.7;
#X text 99 184 feedback gain;
#X obj 16 44 inlet~;
#X obj 30 269 outlet~;
#X obj 112 48 inlet;
#X obj 41 160 delread~ G02-del2 160;
#X obj 60 233 delwrite~ G02-del2 2000;
#X connect 0 0 11 0;
#X connect 5 0 9 0;
#X connect 5 0 12 0;
#X connect 6 0 5 1;
#X connect 8 0 5 0;
#X connect 10 0 0 0;
#X connect 11 0 6 0;
#X restore 466 200 pd delay;
#X floatatom 554 167 0 0 0 0 - - -;
#X msg 581 135 895;
#X obj 307 160 bob~;
#X obj 382 159 bob~;
#X msg 340 77 250;
#X msg 656 138 120;
#X obj 755 176 inlet;
#X obj 464 230 *~;
#X obj 365 242 +~;
#X obj 320 216 *~;
#X obj 292 245 +~;
#X msg 373 95 25;
#X obj 364 333 rev2~ 72 90 3000 20;
#X connect 1 0 0 0;
#X connect 1 0 6 0;
#X connect 1 0 28 0;
#X connect 2 0 0 1;
#X connect 2 0 7 0;
#X connect 2 0 28 0;
#X connect 3 0 28 1;
#X connect 8 0 18 0;
#X connect 9 0 19 0;
#X connect 10 0 2 1;
#X connect 10 0 1 1;
#X connect 11 0 18 1;
#X connect 11 0 19 1;
#X connect 12 0 13 0;
#X connect 12 0 17 0;
#X connect 13 0 11 0;
#X connect 14 0 25 0;
#X connect 15 0 23 0;
#X connect 16 0 15 1;
#X connect 16 0 14 1;
#X connect 17 0 16 0;
#X connect 18 0 14 0;
#X connect 18 0 26 0;
#X connect 19 0 15 0;
#X connect 19 0 24 0;
#X connect 20 0 11 0;
#X connect 21 0 16 0;
#X connect 22 0 23 1;
#X connect 22 0 25 1;
#X connect 23 0 24 1;
#X connect 24 0 2 0;
#X connect 25 0 26 1;
#X connect 26 0 1 0;
#X connect 27 0 11 0;
#X connect 28 0 5 0;
#X connect 28 0 6 0;
#X connect 28 1 5 1;
#X connect 28 1 7 0;
#X restore 393 532 pd out;
#X obj 543 481 hsl 128 15 0 5 0 0 empty vol empty -2 -8 0 10 -262144
-1 -1 8670 1;
#X text 663 7 load choir/music;
#X text 858 214 crossfade choir<->speech;
#X text 538 455 volume;
#X text 1067 243 initial values;
#X text 354 24 control speech speed;
#X obj 1117 94 s speech-sound;
#X msg 1028 479 \; donaldpos_set 0 \; hillarypos_set 0 \;;
#X msg 983 60 bach.wav;
#X msg 141 194 \; don_euc_on 0 \; hill_euc_on 1 \;;
#X msg 11 194 \; don_euc_on 1 \; hill_euc_on 1 \;;
#X obj 409 281 tgl 15 0 empty donald_on empty 17 7 0 10 -262144 -1
-1 1 1;
#X msg 144 259 \; don_euc_on 1 \; hill_euc_on 0 \;;
#X text 444 290 solo;
#X msg 283 251 1e+007;
#X msg 984 92 lig.wav;
#X msg 981 121 wagner.wav;
#X obj 615 121 r absposition;
#X obj 614 151 unpack f f f f;
#X obj 589 185 nbx 5 14 -1e+037 1e+037 0 0 empty empty empty 0 -8 0
10 -262144 -1 -1 0 256;
#X obj 665 185 nbx 5 14 -1e+037 1e+037 0 0 empty empty empty 0 -8 0
10 -262144 -1 -1 0 256;
#X obj 728 181 nbx 5 14 -1e+037 1e+037 0 0 empty empty empty 0 -8 0
10 -262144 -1 -1 0 256;
#X obj 727 261 * 10;
#X obj 733 294 + 2;
#X obj 732 325 abs;
#X obj 277 113 change;
#X obj 276 146 moses 1;
#X msg 1117 35 cartoons.wav;
#N canvas 16 50 450 300 2dto1d 0;
#X obj 80 147 +;
#X obj 33 79 inlet;
#X obj 167 25 inlet;
#X obj 94 244 outlet;
#X obj 88 191 * 0.5;
#X obj 117 75 1;
#X obj 129 111 -;
#X floatatom 137 158 5 0 0 0 - - -, f 5;
#X obj 163 77 t f b;
#X connect 0 0 4 0;
#X connect 1 0 0 0;
#X connect 2 0 8 0;
#X connect 4 0 3 0;
#X connect 5 0 6 0;
#X connect 6 0 0 1;
#X connect 6 0 7 0;
#X connect 8 0 6 1;
#X connect 8 1 5 0;
#X restore 602 214 pd 2dto1d;
#X obj 609 274 nbx 5 14 -1e+037 1e+037 0 0 empty empty empty 0 -8 0
10 -262144 -1 -1 29005 256;
#X obj 800 181 nbx 5 14 -1e+037 1e+037 0 0 empty empty empty 0 -8 0
10 -262144 -1 -1 0 256;
#X obj 709 223 hsl 128 15 1 40000 0 0 empty squelch-set empty -2 -8
0 10 -262144 -1 -1 9209 1;
#X obj 606 243 * 40000;
#X obj 226 23 r hammertime;
#X floatatom 321 55 7 0 0 0 - - -, f 7;
#X obj 279 191 nbx 5 14 -1e+037 1e+037 0 0 empty empty empty 0 -8 0
10 -262144 -1 -1 0 256;
#X obj 424 195 < 0.5;
#X obj 420 226 change;
#X obj 544 534 hsl 128 15 0 1 0 0 empty vol empty -2 -8 0 10 -262144
-1 -1 2350 1;
#X text 539 508 delay;
#X obj 707 370 > 0;
#N canvas 0 50 730 435 sendbeat 0;
#X obj 108 108 inlet~;
#X obj 230 114 inlet~;
#X obj 181 204 +~;
#X obj 124 310 s rhythm;
#X obj 118 254 threshold~ 0.1 5 1 10;
#X obj 281 296 tgl 15 0 empty empty empty 17 7 0 10 -262144 -1 -1 0
1;
#X connect 0 0 2 0;
#X connect 1 0 2 1;
#X connect 2 0 4 0;
#X restore 370 470 pd sendbeat;
#N canvas 0 50 719 462 sendpitch 0;
#X obj 156 106 sigmund~ -hop 4096 pitch env;
#X obj 245 299 s pitch;
#X floatatom 136 291 5 0 0 0 - - -, f 5;
#X obj 185 142 > 0, f 4;
#X obj 136 167 spigot;
#X obj 135 352 osc~;
#X obj 128 381 dac~;
#X obj 134 318 mtof;
#X obj 139 260 line;
#X msg 144 233 \$1 100;
#X obj 167 52 inlet~;
#X connect 0 0 3 0;
#X connect 0 0 4 0;
#X connect 2 0 7 0;
#X connect 3 0 4 1;
#X connect 4 0 9 0;
#X connect 8 0 2 0;
#X connect 8 0 1 0;
#X connect 9 0 8 0;
#X connect 10 0 0 0;
#X restore 531 417 pd sendpitch;
#X connect 1 0 3 0;
#X connect 3 0 13 0;
#X connect 3 1 15 0;
#X connect 5 0 4 0;
#X connect 6 0 4 2;
#X connect 7 0 4 3;
#X connect 8 0 4 1;
#X connect 9 0 7 0;
#X connect 9 0 8 0;
#X connect 11 0 29 0;
#X connect 12 0 13 1;
#X connect 13 0 33 0;
#X connect 14 0 15 1;
#X connect 15 0 33 1;
#X connect 15 0 78 0;
#X connect 17 0 19 0;
#X connect 18 0 16 1;
#X connect 19 0 16 0;
#X connect 23 0 0 0;
#X connect 24 0 10 0;
#X connect 27 0 25 0;
#X connect 27 0 26 0;
#X connect 28 0 25 0;
#X connect 28 0 26 0;
#X connect 30 0 25 0;
#X connect 30 0 26 0;
#X connect 33 0 35 0;
#X connect 33 0 77 0;
#X connect 33 1 35 1;
#X connect 33 1 77 1;
#X connect 36 0 35 2;
#X connect 44 0 25 0;
#X connect 44 0 26 0;
#X connect 47 0 3 2;
#X connect 50 0 3 0;
#X connect 51 0 25 0;
#X connect 51 0 26 0;
#X connect 52 0 25 0;
#X connect 52 0 26 0;
#X connect 53 0 54 0;
#X connect 54 0 55 0;
#X connect 54 0 64 0;
#X connect 54 1 56 0;
#X connect 54 1 64 1;
#X connect 54 2 57 0;
#X connect 54 3 66 0;
#X connect 56 0 72 0;
#X connect 57 0 58 0;
#X connect 58 0 59 0;
#X connect 59 0 60 0;
#X connect 60 0 9 0;
#X connect 61 0 62 0;
#X connect 61 0 71 0;
#X connect 62 0 31 0;
#X connect 62 1 46 0;
#X connect 63 0 42 0;
#X connect 64 0 68 0;
#X connect 65 0 3 1;
#X connect 67 0 65 0;
#X connect 68 0 65 0;
#X connect 69 0 70 0;
#X connect 70 0 61 0;
#X connect 72 0 73 0;
#X connect 73 0 47 0;
#X connect 74 0 35 3;
