#N canvas 278 151 805 497 10;
#X obj 11 85 oscparse;
#X obj 11 57 netreceive -u -b 8888;
#X msg 79 3 listen 8888;
#X msg 81 27 listen 0;
#X obj 51 136 list trim;
#X obj 11 113 list split 1;
#X text 162 130 trim unity;
#X floatatom 151 429 5 0 0 0 - - -, f 5;
#X msg 52 326 disconnect;
#X obj -82 350 list prepend send;
#X obj -82 378 list trim;
#X obj 127 383 netsend -u -b;
#X obj -82 322 oscformat throw;
#X obj 322 287 print abspos;
#X obj 431 232 r note;
#X obj 441 288 list prepend send;
#X obj 441 316 list trim;
#X obj 441 260 oscformat note;
#X obj 602 260 unpack f f;
#X floatatom 596 298 5 0 0 0 - - -, f 5;
#X floatatom 666 298 5 0 0 0 - - -, f 5;
#X obj 47 227 send recNote;
#X obj -64 210 r eucBang;
#X obj -37 245 bng 15 250 50 0 empty empty empty 17 7 0 10 -262144
-1 -1;
#X text -85 275 Barrels per in euklidischen Rythmus werfen;
#X text 140 257 gespielte Note empfangen;
#X text 498 228 neue Note senden;
#X text 262 113 public static string hit= "/unity/hit" \;;
#X obj 303 207 nbx 5 14 -1e+037 1e+037 0 0 empty empty empty 0 -8 0
10 -262144 -1 -1 0 256;
#X obj 185 230 bng 15 250 50 0 empty empty empty 17 7 0 10 -262144
-1 -1;
#X obj -59 173 bng 15 250 50 0 empty empty empty 17 7 0 10 -262144
-1 -1;
#X obj 544 192 s absposition;
#X obj 392 180 s dk_floor;
#X obj 463 179 s dk_jump;
#X obj 392 135 change;
#X obj 252 236 s hammertime;
#X obj 11 156 route floor jump position hit hammerTime moving step
kick;
#X obj 519 418 list prepend send;
#X obj 519 446 list trim;
#X obj 527 326 r rhythm;
#X msg 138 312 connect 255.255.255.255 6666;
#X obj 518 365 bng 15 250 50 0 empty empty empty 17 7 0 10 -262144
-1 -1;
#X obj 519 390 oscformat beat;
#X connect 0 0 5 0;
#X connect 1 0 0 0;
#X connect 2 0 1 0;
#X connect 3 0 1 0;
#X connect 4 0 36 0;
#X connect 5 1 4 0;
#X connect 8 0 11 0;
#X connect 9 0 10 0;
#X connect 10 0 11 0;
#X connect 11 0 7 0;
#X connect 12 0 9 0;
#X connect 14 0 17 0;
#X connect 14 0 18 0;
#X connect 15 0 16 0;
#X connect 16 0 11 0;
#X connect 17 0 15 0;
#X connect 18 0 19 0;
#X connect 18 1 20 0;
#X connect 22 0 12 0;
#X connect 22 0 23 0;
#X connect 30 0 12 0;
#X connect 34 0 32 0;
#X connect 36 0 34 0;
#X connect 36 1 33 0;
#X connect 36 2 31 0;
#X connect 36 3 21 0;
#X connect 36 3 29 0;
#X connect 36 4 35 0;
#X connect 36 5 28 0;
#X connect 37 0 38 0;
#X connect 38 0 11 0;
#X connect 39 0 41 0;
#X connect 40 0 11 0;
#X connect 41 0 42 0;
#X connect 42 0 37 0;
